<?xml version="1.0" encoding="UTF-8" standalone="no"?>
<!-- Created with Inkscape (http://www.inkscape.org/) -->

<svg
   width="800"
   height="800"
   viewBox="0 0 211.66666 211.66667"
   version="1.1"
   id="svg1"
   inkscape:version="1.3 (0e150ed6c4, 2023-07-21)"
   sodipodi:docname="maritime-scheibe.svg"
   xmlns:inkscape="http://www.inkscape.org/namespaces/inkscape"
   xmlns:sodipodi="http://sodipodi.sourceforge.net/DTD/sodipodi-0.dtd"
   xmlns="http://www.w3.org/2000/svg"
   xmlns:svg="http://www.w3.org/2000/svg">
  <sodipodi:namedview
     id="namedview1"
     pagecolor="#ffffff"
     bordercolor="#cccccc"
     borderopacity="1"
     inkscape:showpageshadow="0"
     inkscape:pageopacity="1"
     inkscape:pagecheckerboard="0"
     inkscape:deskcolor="#d1d1d1"
     inkscape:document-units="mm"
     inkscape:zoom="0.69219276"
     inkscape:cx="396.56583"
     inkscape:cy="561.25984"
     inkscape:window-width="1920"
     inkscape:window-height="991"
     inkscape:window-x="-9"
     inkscape:window-y="-9"
     inkscape:window-maximized="1"
     inkscape:current-layer="layer1" />
  <defs
     id="defs1" />
  <g
     inkscape:label="Ebene 1"
     inkscape:groupmode="layer"
     id="layer1">
    <g
       id="g12">
      <circle
         style="fill:#f4e7c5;stroke-width:0.448027;fill-opacity:1"
         id="path1"
         cx="105.83333"
         cy="105.83333"
         r="84.666664" />
      <circle
         style="fill:#123b5d;stroke-width:0.264583;fill-opacity:1"
         id="circle1"
         cx="105.88031"
         cy="101.10232"
         r="50" />
      <circle
         style="fill:#123b5d;fill-opacity:1;stroke-width:0.306269"
         id="circle2"
         cx="105.83332"
         cy="105.83332"
         r="92.604164" />
      <circle
         style="fill:#f4e7c5;fill-opacity:1;stroke-width:0.264583"
         id="circle3"
         cx="105.88031"
         cy="101.10232"
         r="50" />
      <circle
         style="fill:#f4e7c5;fill-opacity:1;stroke-width:0.448027"
         id="circle4"
         cx="105.83333"
         cy="105.83333"
         r="84.666664" />
      <circle
         style="fill:#2e9e9a;fill-opacity:1;stroke-width:0.392024"
         id="circle5"
         cx="105.83334"
         cy="105.83334"
         r="74.083336" />
      <circle
         style="fill:#f4e7c5;fill-opacity:1;stroke-width:0.350022"
         id="circle6"
         cx="105.83334"
         cy="105.83334"
         r="66.145836" />
      <path
         sodipodi:type="star"
         style="fill:#f4e7c5;fill-opacity:1;stroke-width:0.264583"
         id="path6"
         inkscape:flatsided="false"
         sodipodi:sides="8"
         sodipodi:cx="92.884171"
         sodipodi:cy="102.44015"
         sodipodi:r1="42.304417"
         sodipodi:r2="14.806547"
         sodipodi:arg1="-0.57296614"
         sodipodi:arg2="-0.18026706"
         inkscape:rounded="0"
         inkscape:randomized="0"
         d="m 128.43243,79.505787 -20.98164,20.27966 26.78684,11.574073 -29.17615,-0.49637 10.75705,27.12526 -20.279659,-20.98164 -11.574074,26.78683 0.496374,-29.17614 -27.12526,10.75705 20.98164,-20.27966 -26.786838,-11.574076 29.176146,0.496374 -10.757049,-27.12526 20.27966,20.98164 11.57407,-26.786838 -0.49637,29.176145 z"
         inkscape:transform-center-x="1.1701943e-06"
         inkscape:transform-center-y="-1.2905846e-06"
         transform="translate(-1.5289575,-0.76447876)" />
      <path
         sodipodi:type="star"
         style="fill:#123b5d;fill-opacity:1;stroke-width:0.264583"
         id="path7"
         inkscape:flatsided="false"
         sodipodi:sides="8"
         sodipodi:cx="94.030884"
         sodipodi:cy="90.208496"
         sodipodi:r1="40.497536"
         sodipodi:r2="14.174139"
         sodipodi:arg1="-1.2341215"
         sodipodi:arg2="-0.84142243"
         inkscape:rounded="0"
         inkscape:randomized="0"
         d="m 107.40926,51.984559 -3.93269,27.655815 27.04266,-7.000341 -22.33645,16.774783 24.07204,14.172054 -27.65581,-3.932686 7.00034,27.042656 -16.774786,-22.33644 -14.172059,24.07203 3.932691,-27.65581 -27.04266,7.00034 22.336447,-16.774784 -24.072037,-14.172058 27.655816,3.93269 -7.000341,-27.042659 16.774782,22.336447 z"
         transform="matrix(0.41488063,1.1748439,-1.1748439,0.41488063,172.80265,-42.064017)"
         inkscape:transform-center-x="-6.0594284e-06"
         inkscape:transform-center-y="1.6115773e-05" />
      <path
         sodipodi:type="star"
         style="fill:#f28c28;fill-opacity:1;stroke-width:0.264583"
         id="path8"
         inkscape:flatsided="true"
         sodipodi:sides="3"
         sodipodi:cx="82.181465"
         sodipodi:cy="61.922779"
         sodipodi:r1="45.377144"
         sodipodi:r2="22.688572"
         sodipodi:arg1="0.59968432"
         sodipodi:arg2="1.6468819"
         inkscape:rounded="0"
         inkscape:randomized="0"
         d="M 119.64092,87.532818 41.272791,81.558603 85.63068,16.676916 Z"
         inkscape:transform-center-x="-0.18510755"
         inkscape:transform-center-y="-6.8572415"
         transform="matrix(0.18009783,-0.0456961,0.02191157,0.60323895,89.374618,42.505947)" />
      <circle
         style="fill:#f4e7c5;fill-opacity:1;stroke-width:0.158638"
         id="path9"
         cx="105.83333"
         cy="105.83333"
         r="13.229167" />
      <circle
         style="fill:#f28c28;fill-opacity:1;stroke-width:0.0951824"
         id="circle9"
         cx="105.83334"
         cy="105.83334"
         r="7.9375" />
      <circle
         style="fill:#f28c28;fill-opacity:1;stroke-width:0.263565"
         id="path10"
         cx="158.08855"
         cy="78.713539"
         r="8.598958" />
      <circle
         style="fill:#f4e7c5;fill-opacity:1;stroke-width:0.162194"
         id="circle10"
         cx="158.08853"
         cy="78.713547"
         r="5.2916665" />
      <path
         style="fill:#f4e7c5;fill-opacity:1;stroke-width:0.264583"
         d="m 36.312742,152.13127 c 2.004338,0.42837 2.880585,-1.14672 4.96911,-1.14672 0.876213,0 2.694533,-0.37281 3.440155,0 1.590789,0.7954 -0.408628,-0.0264 0.382238,0.76448 0.180192,0.18019 0.536557,-0.11396 0.764479,0 0.161169,0.0806 0.221076,0.30166 0.382241,0.38224 0.227923,0.11396 0.58429,-0.18019 0.764479,0 0.790866,0.79087 -1.20855,-0.0309 0.382239,0.76448 0.113961,0.057 0.292145,-0.0901 0.382238,0 0.07043,0.0704 0.311809,1.07629 0.382241,1.14672 0.180189,0.18019 0.58429,-0.18019 0.764479,0 0.352184,0.35218 0,2.95845 0,3.44015 0,1.05929 -0.01016,0.74415 0.382238,1.52896 0.509654,1.01931 -0.509651,2.80309 0,3.82239 0.328861,0.65773 0.434742,1.25173 0.764479,1.9112 0.203862,0.40772 -0.203861,1.12124 0,1.52896 0.278734,0.55747 0.611479,0.61148 0.764479,0.76448 0.400574,0.40057 -0.589862,1.0429 1.146718,1.91119 0.305792,0.1529 0.840928,-0.15289 1.146717,0 0.161168,0.0806 0.221075,0.30166 0.382241,0.38225 0.149111,0.0745 7.359452,0.5249 7.644786,0.38223 0.551876,-0.27593 0.977085,-0.48854 1.528958,-0.76448 0.891562,-0.44578 3.185727,0 4.204634,0 0.382239,0 0.876435,-0.27028 1.146718,0 0.180189,0.18019 -0.180189,0.58429 0,0.76448 0.566078,0.56608 1.060466,-0.55474 1.528958,0.38224 0.159123,0.31825 -0.242459,1.2865 0,1.52896 0.09009,0.0901 0.325258,-0.11396 0.382238,0 0.113962,0.22792 -0.08058,0.52273 0,0.76448 0.05698,0.17094 0.301657,0.22107 0.382241,0.38224 0.18337,0.36674 -0.02143,0.72162 0.382238,1.52896 0.152898,0.30579 -0.152894,0.84092 0,1.14671 0.05698,0.11397 0.292145,-0.0901 0.382241,0 0.757441,0.75745 1.114891,1.84755 1.528956,2.67568 0.795396,1.59079 -0.02638,-0.40863 0.764479,0.38224 0.191119,0.19112 -0.191119,0.9556 0,1.14672 0.465561,0.46556 0.854004,0.17905 1.146717,0.76448 0.05698,0.11396 -0.09009,0.29214 0,0.38223 0.0901,0.0901 0.292145,-0.0901 0.382241,0 0.191119,0.19113 -0.191119,0.9556 0,1.14672 0.09009,0.0901 0.325258,-0.11396 0.382239,0 0.170944,0.34189 -0.270283,0.87644 0,1.14672 0.09009,0.0901 0.292145,-0.0901 0.38224,0 0.18019,0.18019 -0.180189,0.58429 0,0.76448 0.148934,0.14893 1.295699,0 1.528956,0"
         id="path11" />
      <circle
         style="fill:none;fill-opacity:1;stroke-width:2.11666667;stroke-dasharray:none;stroke:#2e9e9a;stroke-opacity:1"
         id="path12"
         cx="63.500004"
         cy="140.22916"
         r="7.9375" />
      <ellipse
         style="fill:none;fill-opacity:1;stroke:#f28c28;stroke-width:2.11666667;stroke-dasharray:none;stroke-opacity:1"
         id="circle12"
         cx="78.052078"
         cy="146.84375"
         rx="4.669117"
         ry="4.6691165" />
      <ellipse
         style="fill:none;fill-opacity:1;stroke:#123b5d;stroke-width:2.11666667;stroke-dasharray:none;stroke-opacity:1"
         id="ellipse12"
         cx="69.526878"
         cy="152.4287"
         rx="2.5883148"
         ry="2.5883133" />
    </g>
  </g>
</svg>
